# xmcd CD database file
#
# Track frame offsets:
#	150
#	47028
#	82466
#	111444
#	145086
#	190328
#	260871
#
# Disc length: 4385 seconds
#
# Revision: 0
# Processed by: cddbd v1.5.2PL0 Copyright (c) Steve Scherf et al.
# Submitted via: CDex 1.79
#
DISCID=6e111f07
DTITLE=Jimmy Smith - Seven Classic Albums Vol 3   CD2
DYEAR=1900
DGENRE=Jazz
TTITLE0=Laura
TTITLE1=Imagination
TTITLE2=Just Friends
TTITLE3=Lover Man
TTITLE4=Body And Soul
TTITLE5=Home Again in Indiana
TTITLE6=All Private
EXTD=
EXTT0=
EXTT1=
EXTT2=
EXTT3=
EXTT4=
EXTT5=
EXTT6=
PLAYORDER=
